<?xml version="1.0" standalone="no"?>
<!DOCTYPE svg PUBLIC "-//W3C//DTD SVG 20010904//EN"
 "http://www.w3.org/TR/2001/REC-SVG-20010904/DTD/svg10.dtd">
<svg version="1.0" xmlns="http://www.w3.org/2000/svg"
 width="600.000000pt" height="600.000000pt" viewBox="0 0 600.000000 600.000000"
 preserveAspectRatio="xMidYMid meet">

<g transform="translate(0.000000,600.000000) scale(0.100000,-0.100000)"
fill="#000000" stroke="none">
<path d="M2745 5434 c-445 -44 -773 -169 -1034 -393 -69 -60 -90 -86 -78 -97
2 -3 58 13 123 34 185 62 287 77 509 77 257 -1 413 -33 594 -123 68 -34 171
-113 171 -131 0 -5 -114 -11 -252 -14 -549 -13 -1100 -122 -1425 -283 -138
-68 -151 -84 -183 -221 -11 -47 7 -43 76 16 229 196 757 325 1478 362 530 27
1164 -46 1585 -182 198 -64 304 -113 398 -183 33 -25 64 -46 67 -46 31 0 -57
193 -158 343 -300 447 -758 736 -1304 823 -93 15 -477 27 -567 18z"/>
<path d="M2700 4509 c-463 -17 -928 -96 -1181 -199 -134 -54 -149 -73 -114
-148 24 -53 43 -64 64 -38 9 11 9 20 2 35 -15 27 -15 29 19 46 43 22 67 19 74
-10 7 -29 22 -31 91 -10 28 9 67 20 88 26 35 9 37 12 37 50 0 44 11 52 93 64
45 7 46 6 52 -21 13 -55 13 -56 47 -48 18 4 83 14 143 23 l110 17 5 44 5 45
55 8 c30 4 75 6 100 5 43 -3 45 -4 50 -38 l5 -35 110 4 c61 2 148 6 195 10
l85 6 5 35 5 35 109 3 c118 3 126 0 126 -49 l0 -26 173 -6 c210 -7 381 -35
538 -87 171 -56 285 -118 360 -192 l33 -33 -40 -5 c-37 -5 -39 -7 -42 -44 -4
-49 6 -56 86 -56 34 0 62 -3 62 -8 0 -4 -20 -19 -45 -34 l-45 -28 0 -1190 0
-1190 27 -11 c45 -17 220 -13 249 6 l24 15 0 1219 0 1218 25 11 c32 15 35 64
5 85 -21 14 -21 15 20 102 24 53 38 96 34 107 -24 78 -536 211 -1011 263 -125
13 -564 37 -618 33 -11 -1 -108 -5 -215 -9z"/>
<path d="M2137 4153 c-4 -3 -7 -24 -7 -45 l0 -38 53 -1 c28 -1 63 -4 77 -8 24
-7 23 -8 -21 -38 l-46 -32 -6 -83 c-4 -46 -7 -635 -7 -1309 0 -1181 1 -1227
19 -1243 37 -33 242 -33 276 0 13 14 15 178 15 1358 l0 1343 25 11 c27 13 35
58 13 80 -13 13 -379 18 -391 5z"/>
<path d="M3407 4154 c-4 -4 -7 -25 -7 -46 l0 -38 69 0 c39 0 72 -4 76 -9 3 -6
-15 -24 -40 -41 l-45 -31 0 -1314 0 -1314 23 -13 c30 -17 224 -17 255 0 l22
13 0 1348 0 1348 26 11 c21 10 25 18 22 50 l-3 37 -196 3 c-107 1 -198 -1
-202 -4z"/>
<path d="M1424 3986 c-13 -53 -4 -61 71 -64 39 -2 74 -7 78 -11 5 -5 -9 -19
-30 -31 -21 -13 -44 -30 -50 -38 -10 -13 -13 -266 -13 -1194 l0 -1177 30 -16
c20 -10 58 -15 119 -15 90 0 139 11 153 33 4 7 8 558 8 1225 0 1205 0 1214 20
1219 16 4 20 14 20 49 l0 44 -200 0 -200 0 -6 -24z"/>
<path d="M2720 2385 c0 -8 7 -15 15 -15 8 0 21 -15 29 -34 19 -46 42 -56 130
-56 56 0 76 -3 76 -13 0 -8 -34 -35 -75 -61 -41 -26 -82 -54 -90 -63 -12 -12
-15 -57 -15 -265 0 -240 -1 -250 -20 -255 -14 -4 -21 -17 -26 -49 -8 -57 -2
-70 36 -78 41 -8 367 -8 398 0 19 6 22 13 22 63 0 49 -3 58 -22 66 l-23 10 -3
314 -2 314 24 53 c15 32 31 54 40 54 9 0 16 7 16 15 0 13 -35 15 -255 15 -220
0 -255 -2 -255 -15z"/>
<path d="M1282 1353 l3 -107 70 -38 c270 -147 743 -253 1295 -289 205 -13 604
-7 788 12 83 8 117 8 125 0 6 -6 8 -14 4 -17 -16 -16 -134 -47 -262 -69 -379
-65 -914 -59 -1350 15 -343 59 -666 172 -854 299 l-61 42 0 -101 0 -101 46
-49 c168 -180 758 -334 1458 -381 233 -16 912 -6 1111 15 623 68 1107 208
1266 367 l39 39 0 142 c0 79 -4 148 -8 154 -16 25 -59 36 -163 41 l-109 6 0
32 c0 18 -3 46 -6 64 l-6 31 -31 -26 c-45 -38 -94 -60 -218 -98 -656 -198
-1762 -229 -2554 -71 -255 51 -534 142 -559 184 -20 31 -26 4 -24 -96z"/>
</g>
</svg>
